<?xml version="1.0" encoding="UTF-8" standalone="yes"?>
<svg version="1.2" width="1110" height="1110" baseProfile="tiny-ps" viewBox="0 0 1110 1075" xmlns="http://www.w3.org/2000/svg">
  <title>bimi-svg-tiny-12-ps</title>
  <path d="M0 0 C1.93450768 -0.01052147 1.93450768 -0.01052147 3.90809631 -0.02125549 C8.04680887 -0.04064729 12.18546534 -0.04568956 16.32421875 -0.046875 C17.38235149 -0.04753778 17.38235149 -0.04753778 18.46186066 -0.04821396 C39.79335942 -0.05522056 60.83923802 0.28531278 82.01171875 3.203125 C83.36954846 3.38244615 84.72746164 3.56113617 86.08544922 3.73925781 C177.63873977 15.87618304 265.79336849 51.09401152 355.24853516 120.76025391 C356.78723856 122.01942548 358.34157156 123.25944922 359.8984375 124.49609375 C373.34889616 135.21222898 385.41386472 147.51301439 397.57421875 159.640625 C398.42114792 160.48353592 398.42114792 160.48353592 399.28518677 161.34347534 C405.4129188 167.44914072 411.42095436 173.5946762 417.01171875 180.203125 C417.96054117 181.28664588 418.91101273 182.36872528 419.86328125 183.44921875 C458.38502312 227.61147249 489.78541332 279.60318292 511.01171875 334.203125 C511.45080566 335.32315918 511.88989258 336.44319336 512.34228516 337.59716797 C527.96432907 377.76892971 538.2399474 419.50526946 543.75457764 462.23052979 C543.99886086 464.10448881 544.25520114 465.97686451 544.51220703 467.84912109 C549.89599755 508.36395416 549.54371659 552.74222347 544.01171875 593.203125 C543.76228516 595.15581299 543.76228516 595.15581299 543.5078125 597.14794922 C533.38457334 676.13688611 505.39058513 754.00456901 457.01171875 825.203125 C456.54314453 825.87988281 456.07457031 826.55664062 455.59179688 827.25390625 C444.56599281 843.16891602 432.7482669 858.33104736 420.19921875 873.078125 C419.7623877 873.59431396 419.32555664 874.11050293 418.87548828 874.64233398 C409.73153969 885.32103286 399.96489361 895.41664184 390.01025391 905.33496094 C388.24523331 907.0945598 386.48570742 908.85952897 384.7265625 910.625 C378.99180151 916.36348284 373.22955666 921.98279161 367.01171875 927.203125 C365.96695579 928.103596 364.92266252 929.00461233 363.87890625 929.90625 C356.07867168 936.54561415 348.15263769 942.98557661 340.01171875 949.203125 C339.31868652 949.73276855 338.6256543 950.26241211 337.91162109 950.80810547 C258.78961799 1010.93521011 165.50143084 1045.12181127 35.0234375 1057.40625 C33.08892982 1057.41677147 33.08892982 1057.41677147 31.11534119 1057.42750549 C26.97662863 1057.44689729 22.83797216 1057.45193956 18.69921875 1057.453125 C17.99379692 1057.45356686 17.28837509 1057.45400871 16.56157684 1057.45446396 C-4.76992192 1057.46147056 -25.81580052 1057.12093722 -46.98828125 1054.203125 C-48.34611096 1054.02380385 -49.70402414 1053.84511383 -51.06201172 1053.66699219 C-142.61530227 1041.53006696 -230.76993099 1006.31223848 -320.22509766 936.64599609 C-321.76380106 935.38682452 -323.31813406 934.14680078 -324.875 932.91015625 C-338.32545866 922.19402102 -350.39042722 909.89323561 -362.55078125 897.765625 C-363.1154007 897.20368439 -363.68002014 896.64174377 -364.26174927 896.06277466 C-370.3894813 889.95710928 -376.39751686 883.8115738 -381.98828125 877.203125 C-382.93710367 876.11960412 -383.88757523 875.03752472 -384.83984375 873.95703125 C-423.36158562 829.79477751 -454.76197582 777.80306708 -475.98828125 723.203125 C-476.42736816 722.08309082 -476.86645508 720.96305664 -477.31884766 719.80908203 C-492.94089157 679.63732029 -503.2165099 637.90098054 -508.73114014 595.17572021 C-508.97542336 593.30176119 -509.23176364 591.42938549 -509.48876953 589.55712891 C-514.87256005 549.04229584 -514.52027909 504.66402653 -508.98828125 464.203125 C-508.82199219 462.90133301 -508.65570313 461.59954102 -508.484375 460.25830078 C-498.36113584 381.26936389 -470.36714763 303.40168099 -421.98828125 232.203125 C-421.51970703 231.52636719 -421.05113281 230.84960938 -420.56835938 230.15234375 C-409.54255531 214.23733398 -397.7248294 199.07520264 -385.17578125 184.328125 C-384.7389502 183.81193604 -384.30211914 183.29574707 -383.85205078 182.76391602 C-374.70810219 172.08521714 -364.94145611 161.98960816 -354.98681641 152.07128906 C-353.22179581 150.3116902 -351.46226992 148.54672103 -349.703125 146.78125 C-343.96836401 141.04276716 -338.20611916 135.42345839 -331.98828125 130.203125 C-330.94351829 129.302654 -329.89922502 128.40163767 -328.85546875 127.5 C-321.05523418 120.86063585 -313.12920019 114.42067339 -304.98828125 108.203125 C-304.29524902 107.67348145 -303.6022168 107.14383789 -302.88818359 106.59814453 C-223.76618049 46.47103989 -130.47799334 12.28443873 0 0 Z " fill="#BF392B" transform="translate(535.98828125,7.796875)"/>
  <path d="M0 0 C1.30003967 -0.0071553 2.60007935 -0.01431061 3.93951416 -0.02168274 C5.36358618 -0.02452258 6.78765847 -0.02723436 8.21173096 -0.02983093 C9.72558749 -0.03610452 11.23944251 -0.04275209 12.7532959 -0.04974365 C17.71501612 -0.07071201 22.67673632 -0.0811518 27.63848877 -0.09111023 C29.35871648 -0.09516302 31.07894404 -0.09928009 32.79917145 -0.10346031 C40.89954288 -0.12251048 48.99990532 -0.13673167 57.10029483 -0.14507228 C66.37996649 -0.15478945 75.65939609 -0.18096358 84.93898273 -0.22157317 C92.15222683 -0.25202899 99.36540284 -0.26656935 106.57870984 -0.26985329 C110.8658839 -0.27217408 115.15279956 -0.28073367 119.43990326 -0.30631447 C144.0254181 -0.44540455 168.85867022 -0.11534615 192.34161377 8.14717102 C194.21719971 8.77558899 194.21719971 8.77558899 196.13067627 9.41670227 C238.58045446 24.11524949 270.30900612 56.71252079 290.02545166 96.3014679 C306.47149108 130.48133958 312.77808913 167.66123868 312.84161377 205.33467102 C312.84495728 206.39167206 312.84830078 207.4486731 312.85174561 208.53770447 C312.85455339 223.49463419 311.97178607 238.06421337 309.59161377 252.83467102 C309.46536621 253.62247955 309.33911865 254.41028809 309.20904541 255.2219696 C305.17085838 279.74761785 297.31040783 304.33679898 285.34161377 326.14717102 C284.85305908 327.11010071 284.36450439 328.0730304 283.86114502 329.06513977 C276.96868179 342.44462721 267.35291719 354.00745883 257.34161377 365.14717102 C256.43862549 366.16037415 256.43862549 366.16037415 255.51739502 367.19404602 C249.80709109 373.2351736 242.94669664 378.13896406 236.34161377 383.14717102 C235.08864502 384.11010071 235.08864502 384.11010071 233.81036377 385.09248352 C206.06628096 405.5204897 171.35534745 413.30544528 137.472229 413.29243469 C135.90064414 413.2954329 134.32906 413.29883694 132.75747681 413.3026123 C128.51998461 413.31138551 124.28251264 413.31378748 120.04501224 413.31442809 C117.39202146 413.31514197 114.73903573 413.31728258 112.08604622 413.31992531 C102.81551922 413.32915398 93.54500654 413.33326298 84.2744751 413.33247375 C75.65558953 413.33187243 67.03676644 413.34244138 58.41789669 413.35821742 C50.99507176 413.37131646 43.5722672 413.37665672 36.14943081 413.37601835 C31.72601145 413.37576422 27.3026478 413.3785688 22.87924004 413.3891964 C18.72015709 413.39891825 14.56118269 413.39892871 10.40209579 413.39167976 C8.8824186 413.39063925 7.36273449 413.39296486 5.84306908 413.39904022 C-7.25845287 413.44799744 -17.46966212 413.0667115 -27.65838623 404.14717102 C-36.99775274 394.64747204 -38.25339979 383.01286778 -38.1663208 370.25590515 C-38.17093754 368.77201624 -38.17729562 367.28813192 -38.18522978 365.80425704 C-38.2018399 361.75319419 -38.19371501 357.70251103 -38.1812849 353.6514473 C-38.1722026 349.27239738 -38.18621975 344.89341093 -38.19720459 340.51437378 C-38.21495966 331.94689025 -38.21116354 323.37954715 -38.19955403 314.8120582 C-38.19050928 307.8482363 -38.1893002 300.88445368 -38.19364929 293.92062759 C-38.19426222 292.9283618 -38.19487516 291.93609601 -38.19550666 290.91376156 C-38.1967856 288.89782701 -38.19808245 286.88189246 -38.19939703 284.86595793 C-38.21079369 265.97825903 -38.19770284 247.09063789 -38.17619556 228.20295174 C-38.15831989 212.00300417 -38.16143434 195.80317123 -38.17987061 179.60322571 C-38.20128392 160.77860618 -38.20970096 141.9540547 -38.19742155 123.12942469 C-38.19614738 121.12164411 -38.1948899 119.11386352 -38.19364929 117.10608292 C-38.19303219 116.1182786 -38.19241509 115.13047429 -38.19177929 114.11273652 C-38.18832819 107.15776102 -38.19414945 100.20282876 -38.2035675 93.24785995 C-38.21479373 84.77154601 -38.21173407 76.29538021 -38.19044453 67.8190832 C-38.17994338 63.49589001 -38.17579637 59.1729437 -38.18904114 54.84975243 C-38.20098998 50.88964275 -38.19436183 46.93000801 -38.17313093 42.96994121 C-38.16867545 41.54011064 -38.17090744 40.11023966 -38.18063408 38.68043523 C-38.25969063 26.09013144 -35.46375674 17.3268589 -26.65838623 8.14717102 C-18.52250023 1.79004337 -10.22723508 0.03889721 0 0 Z " fill="#F9F8F8" transform="translate(590.6583862304688,245.8528289794922)"/>
  <path d="M0 0 C127.07752697 0 127.07752697 0 143.9375 7.6875 C144.71561035 8.03143799 145.4937207 8.37537598 146.29541016 8.72973633 C170.64993596 19.88112203 186.00642213 40.3254579 197 64 C197.40992188 64.84304688 197.81984375 65.68609375 198.2421875 66.5546875 C201.19571612 72.8051783 203.10846276 79.36385685 205 86 C205.4021875 87.34964844 205.4021875 87.34964844 205.8125 88.7265625 C213.64333902 117.03178272 213.50217752 150.08192322 209 179 C208.8870459 179.80856445 208.7740918 180.61712891 208.65771484 181.45019531 C204.13745719 213.14645984 189.71472766 245.38197041 164.57421875 265.98828125 C118.75987574 299.80541496 49.11851118 285 0 285 C0 190.95 0 96.9 0 0 Z " fill="#C0392B" transform="translate(622,310)"/>
  <path d="M0 0 C7.29872213 6.25604754 12.6274578 13.11288138 13.99669743 22.90938485 C14.13649898 25.77866875 14.15855392 28.62401355 14.13293457 31.49659729 C14.14229451 33.13066832 14.14229451 33.13066832 14.15184355 34.79775089 C14.16772003 38.42601971 14.15518906 42.05361169 14.14257812 45.68188477 C14.14800206 48.29301341 14.15512624 50.90413898 14.16381836 53.51525879 C14.18156229 59.86172514 14.17777948 66.20800173 14.1661678 72.55447537 C14.15710549 77.72375572 14.15592156 82.89298318 14.16026306 88.06226921 C14.16087599 88.80026841 14.16148893 89.53826761 14.16212043 90.29863043 C14.16339949 91.79842482 14.16469634 93.2982192 14.1660108 94.79801356 C14.17740763 108.85241573 14.16432323 122.90671345 14.14280933 136.96109848 C14.12499491 148.96882859 14.1279973 160.97640366 14.14648438 172.98413086 C14.16800372 186.96765515 14.17625067 200.9510875 14.16403532 214.93462604 C14.16276134 216.43324878 14.16150385 217.93187154 14.16026306 219.43049431 C14.15933741 220.53611128 14.15933741 220.53611128 14.15839306 221.66406395 C14.15496894 226.8076314 14.16070546 231.95113967 14.17018127 237.09469795 C14.18152884 243.39229604 14.17810126 249.68969539 14.1570583 255.98727138 C14.14670718 259.1884615 14.14438144 262.38926343 14.15565491 265.59045982 C14.2896786 307.56622089 4.21802125 343.50134861 -25.375 374.25 C-38.30656413 387.0049978 -53.67716974 396.28863896 -70.375 403.25 C-70.9932666 403.51796387 -71.6115332 403.78592773 -72.24853516 404.06201172 C-103.9334258 417.58296557 -142.43189386 416.58903267 -174.15234375 404.04296875 C-190.70412134 397.19755199 -204.34654291 387.50268206 -217.375 375.25 C-217.97699219 374.71246094 -218.57898438 374.17492187 -219.19921875 373.62109375 C-225.25055607 367.99292687 -229.74880051 361.04763869 -234.375 354.25 C-234.91769531 353.45722656 -235.46039063 352.66445313 -236.01953125 351.84765625 C-241.84964287 342.95277296 -243.63277085 334.989428 -242.375 324.25 C-239.48343994 314.50437165 -232.44083094 307.71360973 -223.8125 302.75 C-215.77094403 299.05879398 -207.59953979 298.62206369 -199.140625 301.2578125 C-188.70483743 305.98906334 -180.86611293 313.97496554 -174.08984375 323.03125 C-165.43830085 334.22504582 -152.45058306 343.29382967 -138.30078125 345.79296875 C-119.22756809 348.01343237 -100.6184941 346.36396965 -84.375 335.25 C-82.14232248 333.42860518 -80.01136455 331.56600919 -77.93359375 329.5703125 C-76.375 328.25 -76.375 328.25 -74.375 328.25 C-73.99408203 327.38955078 -73.99408203 327.38955078 -73.60546875 326.51171875 C-72.23742761 323.99712885 -70.60254641 322.18823913 -68.6875 320.0625 C-65.03329369 315.56962339 -62.68544632 311.06102701 -60.5 305.75 C-60.07134644 304.71903198 -60.07134644 304.71903198 -59.6340332 303.66723633 C-56.06031937 294.56086022 -55.0785946 285.68032278 -55.13690186 275.95388794 C-55.13534285 274.85941845 -55.13378384 273.76494896 -55.13217759 272.63731372 C-55.12923677 268.99268072 -55.14036933 265.34822878 -55.15136719 261.70361328 C-55.15189175 259.08124799 -55.15145496 256.45888235 -55.15013123 253.83651733 C-55.14832573 248.19998852 -55.15309106 242.56349713 -55.16173553 236.92697525 C-55.17482664 228.00914341 -55.16719301 219.09138365 -55.15631104 210.17355347 C-55.15283351 207.11698352 -55.14948835 204.06041344 -55.14618301 201.00384331 C-55.14535168 200.24012816 -55.14452034 199.476413 -55.14366381 198.68955497 C-55.13449367 190.01064891 -55.12953261 181.33174224 -55.12646484 172.65283203 C-55.12617909 171.86015001 -55.12589335 171.06746799 -55.12559894 170.25076531 C-55.12149409 157.40403431 -55.13272394 144.55734974 -55.14784035 131.71062912 C-55.1628292 118.4980961 -55.15479622 105.28570321 -55.12722325 92.07319057 C-55.11109382 83.93593206 -55.11367834 75.79911619 -55.14069638 67.66188453 C-55.15964597 61.42109123 -55.14725879 55.18071368 -55.12346077 48.93994522 C-55.11869727 46.38745933 -55.12412907 43.83493019 -55.14069176 41.28249359 C-55.30220384 14.62759858 -55.30220384 14.62759858 -46.06954575 4.79464912 C-32.85308451 -7.89547355 -15.86423956 -8.225902 0 0 Z " fill="#F9F9F9" transform="translate(455.375,251.75)"/>
  <path d="M0 0 C1.93450768 -0.01052147 1.93450768 -0.01052147 3.90809631 -0.02125549 C8.04680887 -0.04064729 12.18546534 -0.04568956 16.32421875 -0.046875 C17.38235149 -0.04753778 17.38235149 -0.04753778 18.46186066 -0.04821396 C39.79335942 -0.05522056 60.83923802 0.28531278 82.01171875 3.203125 C83.36954846 3.38244615 84.72746164 3.56113617 86.08544922 3.73925781 C110.24966368 6.94262999 134.00870199 11.69453247 157.57421875 17.953125 C159.23505493 18.39374268 159.23505493 18.39374268 160.92944336 18.84326172 C161.9478833 19.12186035 162.96632324 19.40045898 164.015625 19.6875 C165.35862671 20.05439941 165.35862671 20.05439941 166.72875977 20.42871094 C169.01171875 21.203125 169.01171875 21.203125 172.01171875 23.203125 C167.24413349 22.81864232 162.88570179 22.27375802 158.3203125 20.83203125 C124.89930008 10.54508799 89.84338406 5.45357975 55.01171875 3.203125 C53.95936035 3.13399902 52.90700195 3.06487305 51.82275391 2.99365234 C45.22087601 2.58353733 38.62468927 2.33723966 32.01171875 2.203125 C30.98997559 2.18121094 29.96823242 2.15929687 28.91552734 2.13671875 C1.66504254 1.64327403 -26.02979213 2.53682075 -52.98730469 6.74804688 C-56.34999202 7.25797603 -59.7185298 7.70698013 -63.08984375 8.15625 C-95.81992899 12.68663861 -127.85907753 21.18527847 -158.98828125 32.203125 C-160.23270996 32.64317871 -161.47713867 33.08323242 -162.75927734 33.53662109 C-217.93216266 53.24683129 -270.22388999 83.38915137 -315.25292969 120.77197266 C-316.7898849 122.03950663 -318.34486291 123.28511707 -319.90234375 124.52734375 C-327.33494682 130.45807865 -334.21092021 136.92037285 -341.1171875 143.4453125 C-343.46485117 145.65084204 -345.83723515 147.8283755 -348.21289062 150.00366211 C-355.87677535 157.02473283 -363.34426025 164.15163977 -370.1171875 172.05078125 C-372.31907954 174.58364662 -374.59023951 177.04645022 -376.86328125 179.515625 C-381.78341568 184.91812555 -386.43085871 190.49298754 -390.98828125 196.203125 C-391.40158691 196.71681641 -391.81489258 197.23050781 -392.24072266 197.75976562 C-414.36163898 225.27988267 -433.61794257 254.92868861 -449.98828125 286.203125 C-450.48714844 287.15558105 -450.98601562 288.10803711 -451.5 289.08935547 C-481.60122799 346.98005262 -499.41065757 409.73574203 -506.56542969 474.40966797 C-506.82030054 476.69614793 -507.0818898 478.98191341 -507.35644531 481.26611328 C-518.55310882 574.43238052 -497.72953023 673.1488301 -426.98828125 813.203125 C-426.5298584 813.90856445 -426.07143555 814.61400391 -425.59912109 815.34082031 C-414.29462802 832.68585301 -402.23505429 849.28965297 -388.98828125 865.203125 C-389.31828125 865.863125 -389.64828125 866.523125 -389.98828125 867.203125 C-395.32422037 861.355366 -400.3265407 855.36684602 -405.05078125 849.015625 C-405.68999512 848.15831787 -406.32920898 847.30101074 -406.98779297 846.41772461 C-435.05235562 808.48011882 -458.82927202 767.21417252 -475.98828125 723.203125 C-476.64908691 721.51872314 -476.64908691 721.51872314 -477.32324219 719.80029297 C-492.94291812 679.63145284 -503.21697721 637.89736003 -508.73114014 595.17572021 C-508.97542336 593.30176119 -509.23176364 591.42938549 -509.48876953 589.55712891 C-514.87256005 549.04229584 -514.52027909 504.66402653 -508.98828125 464.203125 C-508.82199219 462.90133301 -508.65570313 461.59954102 -508.484375 460.25830078 C-498.36113584 381.26936389 -470.36714763 303.40168099 -421.98828125 232.203125 C-421.51970703 231.52636719 -421.05113281 230.84960938 -420.56835938 230.15234375 C-409.54255531 214.23733398 -397.7248294 199.07520264 -385.17578125 184.328125 C-384.7389502 183.81193604 -384.30211914 183.29574707 -383.85205078 182.76391602 C-374.70810219 172.08521714 -364.94145611 161.98960816 -354.98681641 152.07128906 C-353.22179581 150.3116902 -351.46226992 148.54672103 -349.703125 146.78125 C-343.96836401 141.04276716 -338.20611916 135.42345839 -331.98828125 130.203125 C-330.94351829 129.302654 -329.89922502 128.40163767 -328.85546875 127.5 C-321.05523418 120.86063585 -313.12920019 114.42067339 -304.98828125 108.203125 C-304.29524902 107.67348145 -303.6022168 107.14383789 -302.88818359 106.59814453 C-223.76618049 46.47103989 -130.47799334 12.28443873 0 0 Z " fill="#372E2D" transform="translate(535.98828125,7.796875)"/>
  <path d="M0 0 C4.70588235 0.70588235 4.70588235 0.70588235 6 2 C6.10410433 3.73836291 6.13853527 5.48094777 6.14526367 7.22241211 C6.15164352 8.3370433 6.15802338 9.4516745 6.16459656 10.6000824 C6.16570938 11.81357864 6.1668222 13.02707489 6.16796875 14.27734375 C6.17296135 16.13257408 6.17296135 16.13257408 6.17805481 18.02528381 C6.1831293 20.64730455 6.18546298 23.26933178 6.18530273 25.89135742 C6.18522129 28.58706342 6.19218657 31.28260019 6.20581055 33.97827148 C6.22405346 37.84884898 6.22903586 41.71922767 6.23046875 45.58984375 C6.23765427 46.80131577 6.24483978 48.01278778 6.25224304 49.26097107 C6.24916641 50.37875443 6.24608978 51.49653778 6.24291992 52.64819336 C6.24434494 53.63556992 6.24576996 54.62294647 6.24723816 55.64024353 C6 58 6 58 4 60 C1.375 59.625 1.375 59.625 -1 59 C-1.495 57.02 -1.495 57.02 -2 55 C-2.556875 55.61875 -3.11375 56.2375 -3.6875 56.875 C-7.6950141 60.55758053 -11.42135489 61.47737419 -16.8828125 61.3125 C-22.12255803 60.53910583 -26.39528675 58.01161739 -29.875 54.0625 C-34.45084333 47.46790226 -35.76045166 40.3701251 -34.5 32.4375 C-32.83719942 26.0222356 -28.46379618 21.75203284 -23.1875 18 C-18.7475832 16.60708493 -14.57961882 16.01401975 -10 17 C-7.22668497 18.51482511 -4.60534959 20.21393764 -2 22 C-1.96241577 21.05362671 -1.96241577 21.05362671 -1.92407227 20.08813477 C-1.80845863 17.24603175 -1.68557684 14.40428917 -1.5625 11.5625 C-1.52318359 10.56927734 -1.48386719 9.57605469 -1.44335938 8.55273438 C-1.38051758 7.13637695 -1.38051758 7.13637695 -1.31640625 5.69140625 C-1.27974854 4.81685791 -1.24309082 3.94230957 -1.20532227 3.04125977 C-1 1 -1 1 0 0 Z " fill="#342E2D" transform="translate(484,742)"/>
  <path d="M0 0 C1.91102292 0.9369742 3.75883104 2.00089293 5.58984375 3.0859375 C6.57984375 1.7659375 7.56984375 0.4459375 8.58984375 -0.9140625 C13.46484375 -0.0390625 13.46484375 -0.0390625 14.58984375 1.0859375 C14.70333536 3.94687967 14.75402867 6.78277206 14.7578125 9.64453125 C14.7628051 10.93376244 14.7628051 10.93376244 14.76789856 12.2490387 C14.77297145 14.07072411 14.77530677 15.89241886 14.77514648 17.71411133 C14.77733178 20.5081304 14.79548019 23.30175407 14.81445312 26.09570312 C14.81738715 27.86197781 14.81937189 29.62825438 14.8203125 31.39453125 C14.82749802 32.23414902 14.83468353 33.07376678 14.84208679 33.93882751 C14.81866556 39.85711569 14.81866556 39.85711569 12.58984375 42.0859375 C9.96484375 41.7109375 9.96484375 41.7109375 7.58984375 41.0859375 C7.09484375 39.1059375 7.09484375 39.1059375 6.58984375 37.0859375 C6.03296875 37.7046875 5.47609375 38.3234375 4.90234375 38.9609375 C0.83748709 42.69621119 -2.83705076 43.50862132 -8.36328125 43.33203125 C-14.04738197 42.64863746 -18.34264334 39.93282996 -22.12109375 35.80078125 C-26.91529352 29.42304277 -27.46032594 21.82456657 -26.41015625 14.0859375 C-24.39623849 7.71339578 -20.56918483 3.51912481 -14.87109375 0.12109375 C-9.82836612 -2.00005359 -5.09501207 -1.93230604 0 0 Z " fill="#362E2D" transform="translate(377.41015625,759.9140625)"/>
  <path d="M0 0 C2.6875 -0.3125 2.6875 -0.3125 5 0 C8.75885524 8.09722281 12.27243934 16.28865052 15.71166992 24.52514648 C16.56303881 26.56379021 17.41705852 28.60130774 18.27148438 30.63867188 C19.36325418 33.24419795 20.45004413 35.85170103 21.53173828 38.46142578 C22.44436386 40.66089287 23.36343266 42.85771205 24.29248047 45.05029297 C24.84186279 46.36924561 24.84186279 46.36924561 25.40234375 47.71484375 C25.71550537 48.45726318 26.02866699 49.19968262 26.35131836 49.96459961 C27 52 27 52 27 56 C24.525 56.495 24.525 56.495 22 57 C19 53 19 53 15 42 C2.13 41.505 2.13 41.505 -11 41 C-11.495 43.475 -11.495 43.475 -12 46 C-12.53293508 47.76600056 -13.11710104 49.51730941 -13.75 51.25 C-14.20632812 52.55710937 -14.20632812 52.55710937 -14.671875 53.890625 C-16 56 -16 56 -18.640625 56.796875 C-19.41921875 56.86390625 -20.1978125 56.9309375 -21 57 C-22.86137134 51.80884214 -20.80566356 48.15213874 -18.75 43.375 C-18.01147724 41.6003609 -17.27321069 39.82561517 -16.53515625 38.05078125 C-16.13055176 37.08994629 -15.72594727 36.12911133 -15.30908203 35.13916016 C-13.88424741 31.72242693 -12.49951498 28.29118022 -11.12109375 24.85546875 C-10.14325112 22.42447033 -9.16538675 19.99348067 -8.1875 17.5625 C-7.48608887 15.81235596 -7.48608887 15.81235596 -6.77050781 14.02685547 C-6.32416992 12.92615723 -5.87783203 11.82545898 -5.41796875 10.69140625 C-5.02375732 9.71373291 -4.6295459 8.73605957 -4.22338867 7.72875977 C-1.7997819 2.32292203 -1.7997819 2.32292203 0 0 Z " fill="#342E2D" transform="translate(179,745)"/>
  <path d="M0 0 C3.4375 1.875 3.4375 1.875 6 4 C6.99 4.66 7.98 5.32 9 6 C9.7425 5.38125 10.485 4.7625 11.25 4.125 C17.01734464 -0.33158449 21.80041739 -0.83473422 29 0 C34.08495399 2.3608715 35.90785049 4.89169015 38 10 C38.34057617 13.61865234 38.34057617 13.61865234 38.29296875 17.5859375 C38.28872391 18.28772125 38.28447906 18.989505 38.28010559 19.71255493 C38.26343599 21.9337756 38.22580872 24.15405788 38.1875 26.375 C38.17243788 27.88930973 38.15875216 29.40363381 38.14648438 30.91796875 C38.11357183 34.61227932 38.06187259 38.30604793 38 42 C35.625 42.625 35.625 42.625 33 43 C30.18443344 40.18443344 30.73117442 38.32168059 30.69140625 34.3828125 C30.66624187 33.04036032 30.64084391 31.69791251 30.61523438 30.35546875 C30.58651541 28.24008353 30.56249799 26.12477422 30.54370117 24.00927734 C30.52200226 21.9667182 30.48255742 19.92505893 30.44140625 17.8828125 C30.42795166 16.65965332 30.41449707 15.43649414 30.40063477 14.17626953 C29.97387485 10.79287743 29.39905624 9.37912752 27 7 C22.22495636 5.89931197 18.09588926 6.32904739 13.9375 8.875 C10.69947534 12.42638189 10.82788788 14.79796974 10.68359375 19.5390625 C10.62075195 21.49199219 10.62075195 21.49199219 10.55664062 23.484375 C10.51682701 24.86458045 10.47711478 26.24478883 10.4375 27.625 C10.39430593 29.01303415 10.35069135 30.40105528 10.30664062 31.7890625 C10.20028 35.19260256 10.09825286 38.59621778 10 42 C7.625 42.625 7.625 42.625 5 43 C2.18443344 40.18443344 2.73117442 38.32168059 2.69140625 34.3828125 C2.66624187 33.04036032 2.64084391 31.69791251 2.61523438 30.35546875 C2.58651541 28.24008353 2.56249799 26.12477422 2.54370117 24.00927734 C2.52200226 21.9667182 2.48255742 19.92505893 2.44140625 17.8828125 C2.42795166 16.65965332 2.41449707 15.43649414 2.40063477 14.17626953 C1.97434933 10.79663911 1.38882323 9.3826374 -1 7 C-5.62589118 5.97779933 -10.91710529 6.57578127 -15 9 C-16.12044665 12.36133995 -16.17466532 15.0245661 -16.24609375 18.56640625 C-16.27896484 19.85611328 -16.31183594 21.14582031 -16.34570312 22.47460938 C-16.39323254 24.5242844 -16.43771787 26.57392518 -16.47680664 28.6237793 C-16.51643265 30.60484248 -16.56857726 32.58564287 -16.62109375 34.56640625 C-16.6461499 35.75177979 -16.67120605 36.93715332 -16.69702148 38.15844727 C-17 41 -17 41 -19 43 C-20.65 42.67 -22.3 42.34 -24 42 C-24 28.8 -24 15.6 -24 2 C-22.35 1.67 -20.7 1.34 -19 1 C-17.1875 2.4375 -17.1875 2.4375 -16 4 C-15.21625 3.34 -14.4325 2.68 -13.625 2 C-9.35477421 -0.83332517 -4.95140514 -0.82120866 0 0 Z " fill="#342E2D" transform="translate(669,759)"/>
  <path d="M0 0 C5.16230914 3.09544477 9.59855108 7.27271764 11.640625 13.05859375 C11.890625 16.68359375 11.890625 16.68359375 11.640625 20.05859375 C9.640625 22.05859375 9.640625 22.05859375 6.56787109 22.28564453 C5.27961426 22.2751709 3.99135742 22.26469727 2.6640625 22.25390625 C1.978815 22.25107635 1.2935675 22.24824646 0.58755493 22.24533081 C-1.60326527 22.23412656 -3.79367816 22.20902234 -5.984375 22.18359375 C-7.4687441 22.17356423 -8.9531196 22.16443833 -10.4375 22.15625 C-14.07825761 22.13418669 -17.71877656 22.09965551 -21.359375 22.05859375 C-20.74116078 23.67268393 -20.11615678 25.28417469 -19.48828125 26.89453125 C-19.14095947 27.79220215 -18.7936377 28.68987305 -18.43579102 29.61474609 C-16.92012642 33.05584443 -15.79388432 34.45095109 -12.359375 36.05859375 C-6.95119656 36.83591603 -2.77926755 36.87371725 2.015625 34.12109375 C3.315 33.10015625 3.315 33.10015625 4.640625 32.05859375 C7.515625 31.30859375 7.515625 31.30859375 9.640625 31.05859375 C10.135625 33.03859375 10.135625 33.03859375 10.640625 35.05859375 C9.58574767 36.02531131 8.52129219 36.9815812 7.453125 37.93359375 C6.86144531 38.46726562 6.26976562 39.0009375 5.66015625 39.55078125 C0.17420354 43.64667631 -5.75080448 43.94455806 -12.359375 43.05859375 C-17.85314987 41.0411529 -22.27380538 38.11892793 -25.359375 33.05859375 C-28.10117081 26.06401246 -29.05454252 17.73667408 -26.44921875 10.546875 C-20.83254381 1.06534979 -10.8849988 -4.34318661 0 0 Z " fill="#362E2D" transform="translate(575.359375,759.94140625)"/>
  <path d="M0 0 C3.66179604 1.73103086 5.46189044 3.28252058 7.875 6.5 C9.76566256 12.38206129 10.33180476 18.63877845 8.015625 24.484375 C5.835477 28.17178581 4.06882403 30.41936018 0 32 C-4.89647194 32.84575424 -8.13443792 32.54498353 -12.375 29.875 C-17.34707517 24.42939386 -18.61430771 20.03487126 -18.42578125 12.76171875 C-17.76113051 8.45063548 -15.87988754 5.23683134 -13 2 C-8.73595522 -0.84269652 -5.00431583 -0.62359076 0 0 Z " fill="#BD382B" transform="translate(474,765)"/>
  <path d="M0 0 C4.16517615 1.53930423 6.22711027 4.02922715 8.2734375 7.98046875 C10.32761749 13.69020561 9.40276797 19.72979731 7.02734375 25.203125 C5.13722041 28.50904416 3.2840128 30.08930164 0 32 C-3.47877043 32.68014422 -6.52648647 32.72606888 -10 32 C-12.9375 29.8125 -12.9375 29.8125 -15 27 C-15.598125 26.29875 -16.19625 25.5975 -16.8125 24.875 C-19.11089093 19.31047459 -18.94373633 12.70114241 -16.8125 7.0625 C-12.54857918 -0.14205587 -7.9459591 -1.0489715 0 0 Z " fill="#BD382B" transform="translate(376,765)"/>
  <path d="M0 0 C2.26949646 1.23790716 3.71344567 2.27594567 5.5625 4.125 C5.1875 6.25 5.1875 6.25 4.5625 8.125 C0.82762223 7.6270163 -1.24987635 7.25008244 -4.4375 5.125 C-6.88294278 4.80856727 -6.88294278 4.80856727 -9.5 4.875 C-10.37785156 4.86984375 -11.25570312 4.8646875 -12.16015625 4.859375 C-14.63552328 4.90940648 -14.63552328 4.90940648 -16.4375 7.125 C-16.60427282 10.70843976 -16.60427282 10.70843976 -16.4375 14.125 C-15.82003906 14.29515625 -15.20257812 14.4653125 -14.56640625 14.640625 C-0.00601997 18.80706735 -0.00601997 18.80706735 5.125 23.4375 C7.00714038 26.95628419 7.055318 29.18245598 6.5625 33.125 C5.18964113 36.81455822 3.32607569 38.51576738 0 40.4375 C-5.47899551 42.90053468 -10.97580178 43.23726386 -16.7109375 41.39453125 C-21.03885078 39.42364137 -23.75901087 37.1427337 -26.4375 33.125 C-25.7775 31.805 -25.1175 30.485 -24.4375 29.125 C-21.17694556 29.50121782 -20.27251964 30.28998036 -17.875 32.6875 C-14.21427717 35.94356709 -10.53239557 35.60534594 -5.828125 35.49609375 C-3.25678636 35.33780249 -3.25678636 35.33780249 -1.4375 33.125 C-1.27072718 29.54156024 -1.27072718 29.54156024 -1.4375 26.125 C-2.53449219 25.73828125 -3.63148438 25.3515625 -4.76171875 24.953125 C-6.21632847 24.42758858 -7.6707455 23.9015186 -9.125 23.375 C-9.84623047 23.12234375 -10.56746094 22.8696875 -11.31054688 22.609375 C-16.9734276 20.54074277 -21.00793476 18.26934786 -24.4375 13.125 C-24.94402718 9.32604613 -24.57273788 7.40088527 -22.875 3.9375 C-16.90231932 -2.95405464 -7.94940559 -3.84509292 0 0 Z " fill="#362E2D" transform="translate(949.4375,760.875)"/>
  <path d="M0 0 C2.67874077 1.12370905 4.59889499 2.34108249 6.65625 4.3984375 C6.28125 6.5234375 6.28125 6.5234375 5.65625 8.3984375 C3.90625 9.0859375 3.90625 9.0859375 1.65625 9.3984375 C1.07230469 8.91890625 0.48835937 8.439375 -0.11328125 7.9453125 C-4.30668698 5.03710117 -9.44999414 5.80180151 -14.34375 6.3984375 C-18.75138179 8.7371809 -20.67263533 11.73690711 -22.34375 16.3984375 C-23.31147907 22.75948589 -22.17311238 28.17443079 -18.34375 33.3984375 C-14.44357825 37.08710319 -11.1109465 36.82321152 -5.96484375 36.70703125 C-2.82289709 36.33711503 -0.93830982 35.15358091 1.65625 33.3984375 C4.46875 33.7109375 4.46875 33.7109375 6.65625 34.3984375 C6.53125 36.1484375 6.53125 36.1484375 5.65625 38.3984375 C-0.89584614 43.49451227 -7.18600516 44.40264122 -15.34375 43.3984375 C-21.89197028 40.78132127 -25.75024203 36.30089845 -29.09375 30.2109375 C-31.22682516 24.7360446 -31.27644054 19.33036749 -29.5 13.74609375 C-23.98903383 1.365038 -13.13237471 -3.37064284 0 0 Z " fill="#362E2D" transform="translate(862.34375,759.6015625)"/>
  <path d="M0 0 C1 1 1 1 1.0625 3.5625 C1.041875 4.366875 1.02125 5.17125 1 6 C-0.6875 6.6875 -0.6875 6.6875 -3 7 C-4.0209375 6.2884375 -4.0209375 6.2884375 -5.0625 5.5625 C-9.61143655 3.1428529 -13.96517686 3.10092444 -19 4 C-22.4625559 5.87050659 -25.3199544 8.07655742 -26.66015625 11.8671875 C-27.59337959 17.72396847 -27.93505134 23.12989731 -25.25 28.5 C-21.60460081 32.59283446 -21.60460081 32.59283446 -16.59765625 34.3984375 C-11.36482933 34.35006006 -8.45100196 33.92494415 -4 31 C-1.1875 31.3125 -1.1875 31.3125 1 32 C1.0625 34.25 1.0625 34.25 0 37 C-5.17875116 40.76090281 -11.07909964 41.70378477 -17.35546875 41.44921875 C-23.06943943 40.47860335 -27.09214001 37.2447208 -30.875 33 C-35.60603444 26.32089256 -35.77218617 19.99905672 -35 12 C-33.24774322 5.8781915 -27.99831583 1.6332727 -23 -2 C-15.34647038 -4.55117654 -7.24597607 -3.25226368 0 0 Z " fill="#352E2D" transform="translate(295,762)"/>
  <path d="M0 0 C4.70588235 0.70588235 4.70588235 0.70588235 6 2 C6.11349161 4.86094217 6.16418492 7.69683456 6.16796875 10.55859375 C6.17129715 11.41808121 6.17462555 12.27756866 6.17805481 13.1631012 C6.1831277 14.98478661 6.18546302 16.80648136 6.18530273 18.62817383 C6.18748803 21.4221929 6.20563644 24.21581657 6.22460938 27.00976562 C6.2275434 28.77604031 6.22952814 30.54231688 6.23046875 32.30859375 C6.23765427 33.14821152 6.24483978 33.98782928 6.25224304 34.85289001 C6.22882181 40.77117819 6.22882181 40.77117819 4 43 C1.375 42.625 1.375 42.625 -1 42 C-1.02464638 36.17928378 -1.0428343 30.35859766 -1.05493164 24.5378418 C-1.05997267 22.55606559 -1.06680538 20.57429311 -1.07543945 18.5925293 C-1.08751515 15.75047891 -1.09323045 12.90847753 -1.09765625 10.06640625 C-1.10281754 9.17474258 -1.10797882 8.28307892 -1.11329651 7.36439514 C-1.11349177 5.24259399 -1.0621003 3.1208922 -1 1 C-0.67 0.67 -0.34 0.34 0 0 Z " fill="#382E2D" transform="translate(769,759)"/>
  <path d="M0 0 C0.66 0 1.32 0 2 0 C3.50548369 3.78951244 5.00345314 7.58195031 6.5 11.375 C7.14388672 12.99535156 7.14388672 12.99535156 7.80078125 14.6484375 C8.40986328 16.1953125 8.40986328 16.1953125 9.03125 17.7734375 C9.40830078 18.72653809 9.78535156 19.67963867 10.17382812 20.66162109 C11 23 11 23 11 25 C4.4 25 -2.2 25 -9 25 C-7.03097413 19.09292238 -5.01973895 13.25262088 -2.8125 7.4375 C-2.40354492 6.3537207 -2.40354492 6.3537207 -1.98632812 5.24804688 C-1.3257582 3.49811603 -0.66310684 1.74897111 0 0 Z " fill="#B9382B" transform="translate(180,755)"/>
  <path d="M0 0 C4.20196558 1.73559448 6.05981587 3.91540184 8 8 C8 8.99 8 9.98 8 11 C-0.25 11 -8.5 11 -17 11 C-15.91910497 5.59552487 -14.98080159 4.49533798 -11 1 C-7.54820431 -0.72589785 -3.78133961 -0.36043965 0 0 Z " fill="#BC382B" transform="translate(572,765)"/>
  <path d="M0 0 C3 0.125 3 0.125 4 1.125 C4.125 4.125 4.125 4.125 4 7.125 C3.67 7.455 3.34 7.785 3 8.125 C0.66055264 7.83769945 -1.6739143 7.50563221 -4 7.125 C-4.04254356 5.12545254 -4.04080783 3.12458364 -4 1.125 C-3 0.125 -3 0.125 0 0 Z " fill="#362E2D" transform="translate(771,746.875)"/>
</svg>